<?xml version="1.0" ?><svg height="24" id="svg8" version="1.1" viewBox="0 0 24 24" width="24" xmlns="http://www.w3.org/2000/svg" xmlns:cc="http://creativecommons.org/ns#" xmlns:dc="http://purl.org/dc/elements/1.1/" xmlns:rdf="http://www.w3.org/1999/02/22-rdf-syntax-ns#" xmlns:svg="http://www.w3.org/2000/svg"><defs id="defs2"><rect height="7.0346723" id="rect2504" width="7.9207187" x="-1.1008456" y="289.81766"/></defs><g id="g2486" style="display:inline;stroke-width:0.262937;stroke-miterlimit:4;stroke-dasharray:none" transform="matrix(3.8030584,0,0,3.8033279,-0.08910222,-1105.5283)"><path d="m 0.40429688,294.82422 v 0.13086 1.64258 H 1.5273438 v -1.77344 z" id="rect2416" style="color:#000000;font-style:normal;font-variant:normal;font-weight:normal;font-stretch:normal;font-size:medium;line-height:normal;font-family:sans-serif;font-variant-ligatures:normal;font-variant-position:normal;font-variant-caps:normal;font-variant-numeric:normal;font-variant-alternates:normal;font-variant-east-asian:normal;font-feature-settings:normal;font-variation-settings:normal;text-indent:0;text-align:start;text-decoration:none;text-decoration-line:none;text-decoration-style:solid;text-decoration-color:#000000;letter-spacing:normal;word-spacing:normal;text-transform:none;writing-mode:lr-tb;direction:ltr;text-orientation:mixed;dominant-baseline:auto;baseline-shift:baseline;text-anchor:start;white-space:normal;shape-padding:0;shape-margin:0;inline-size:0;clip-rule:nonzero;display:inline;overflow:visible;visibility:visible;opacity:1;isolation:auto;mix-blend-mode:normal;color-interpolation:sRGB;color-interpolation-filters:linearRGB;solid-color:#000000;solid-opacity:1;vector-effect:none;fill:#000000;fill-opacity:1;fill-rule:nonzero;stroke:none;stroke-linecap:square;stroke-linejoin:miter;stroke-miterlimit:4;stroke-dasharray:none;stroke-dashoffset:0;stroke-opacity:1;paint-order:fill markers stroke;color-rendering:auto;image-rendering:auto;shape-rendering:auto;text-rendering:auto;enable-background:accumulate;stop-color:#000000;stop-opacity:1"/><path d="m 1.890625,294.35938 v 0.13085 2.10743 h 1.1210938 v -2.23828 z m 0.2617188,0.26367 h 0.5957031 v 1.71289 H 2.1523438 Z" id="rect2418" style="color:#000000;font-style:normal;font-variant:normal;font-weight:normal;font-stretch:normal;font-size:medium;line-height:normal;font-family:sans-serif;font-variant-ligatures:normal;font-variant-position:normal;font-variant-caps:normal;font-variant-numeric:normal;font-variant-alternates:normal;font-variant-east-asian:normal;font-feature-settings:normal;font-variation-settings:normal;text-indent:0;text-align:start;text-decoration:none;text-decoration-line:none;text-decoration-style:solid;text-decoration-color:#000000;letter-spacing:normal;word-spacing:normal;text-transform:none;writing-mode:lr-tb;direction:ltr;text-orientation:mixed;dominant-baseline:auto;baseline-shift:baseline;text-anchor:start;white-space:normal;shape-padding:0;shape-margin:0;inline-size:0;clip-rule:nonzero;display:inline;overflow:visible;visibility:visible;opacity:1;isolation:auto;mix-blend-mode:normal;color-interpolation:sRGB;color-interpolation-filters:linearRGB;solid-color:#000000;solid-opacity:1;vector-effect:none;fill:#000000;fill-opacity:1;fill-rule:nonzero;stroke:none;stroke-linecap:square;stroke-linejoin:miter;stroke-miterlimit:4;stroke-dasharray:none;stroke-dashoffset:0;stroke-opacity:1;paint-order:fill markers stroke;color-rendering:auto;image-rendering:auto;shape-rendering:auto;text-rendering:auto;enable-background:accumulate;stop-color:#000000;stop-opacity:1"/><path d="m 3.3496094,293.77734 v 0.13282 2.6875 h 1.1230468 v -2.82032 z" id="rect2420" style="color:#000000;font-style:normal;font-variant:normal;font-weight:normal;font-stretch:normal;font-size:medium;line-height:normal;font-family:sans-serif;font-variant-ligatures:normal;font-variant-position:normal;font-variant-caps:normal;font-variant-numeric:normal;font-variant-alternates:normal;font-variant-east-asian:normal;font-feature-settings:normal;font-variation-settings:normal;text-indent:0;text-align:start;text-decoration:none;text-decoration-line:none;text-decoration-style:solid;text-decoration-color:#000000;letter-spacing:normal;word-spacing:normal;text-transform:none;writing-mode:lr-tb;direction:ltr;text-orientation:mixed;dominant-baseline:auto;baseline-shift:baseline;text-anchor:start;white-space:normal;shape-padding:0;shape-margin:0;inline-size:0;clip-rule:nonzero;display:inline;overflow:visible;visibility:visible;opacity:1;isolation:auto;mix-blend-mode:normal;color-interpolation:sRGB;color-interpolation-filters:linearRGB;solid-color:#000000;solid-opacity:1;vector-effect:none;fill:#000000;fill-opacity:1;fill-rule:nonzero;stroke:none;stroke-linecap:square;stroke-linejoin:miter;stroke-miterlimit:4;stroke-dasharray:none;stroke-dashoffset:0;stroke-opacity:1;paint-order:fill markers stroke;color-rendering:auto;image-rendering:auto;shape-rendering:auto;text-rendering:auto;enable-background:accumulate;stop-color:#000000;stop-opacity:1"/><path d="m 4.8222656,293.3125 v 0.13281 3.15235 h 1.1230469 v -3.28516 z m 0.2636719,0.26367 h 0.5957031 v 2.75977 H 5.0859375 Z" id="rect2422" style="color:#000000;font-style:normal;font-variant:normal;font-weight:normal;font-stretch:normal;font-size:medium;line-height:normal;font-family:sans-serif;font-variant-ligatures:normal;font-variant-position:normal;font-variant-caps:normal;font-variant-numeric:normal;font-variant-alternates:normal;font-variant-east-asian:normal;font-feature-settings:normal;font-variation-settings:normal;text-indent:0;text-align:start;text-decoration:none;text-decoration-line:none;text-decoration-style:solid;text-decoration-color:#000000;letter-spacing:normal;word-spacing:normal;text-transform:none;writing-mode:lr-tb;direction:ltr;text-orientation:mixed;dominant-baseline:auto;baseline-shift:baseline;text-anchor:start;white-space:normal;shape-padding:0;shape-margin:0;inline-size:0;clip-rule:nonzero;display:inline;overflow:visible;visibility:visible;opacity:1;isolation:auto;mix-blend-mode:normal;color-interpolation:sRGB;color-interpolation-filters:linearRGB;solid-color:#000000;solid-opacity:1;vector-effect:none;fill:#000000;fill-opacity:1;fill-rule:nonzero;stroke:none;stroke-linecap:square;stroke-linejoin:miter;stroke-miterlimit:4;stroke-dasharray:none;stroke-dashoffset:0;stroke-opacity:1;paint-order:fill markers stroke;color-rendering:auto;image-rendering:auto;shape-rendering:auto;text-rendering:auto;enable-background:accumulate;stop-color:#000000;stop-opacity:1"/><path d="m 20.591797,1.46875 c -1.075987,0 -1.960938,0.8849 -1.960938,1.9609375 0,0.1910744 0.03597,0.373686 0.08789,0.5488281 L 18.556641,4.0761719 16.037109,5.5839844 15.916016,5.65625 C 15.557858,5.2802217 15.055284,5.0429688 14.5,5.0429688 c -0.808497,0 -1.504472,0.498177 -1.800781,1.203125 L 9.9101562,5.7617188 9.7363281,5.7304688 C 9.5799247,4.807782 8.7741876,4.0976562 7.8085938,4.0976562 c -1.0759868,0 -1.9609375,0.8790406 -1.9609376,1.9550782 0,0.471544 0.1755528,0.9004573 0.4570313,1.2402344 L 4.1132812,10.087891 C 3.914861,10.019579 3.7047929,9.9746094 3.484375,9.9746094 c -1.0759865,0 -1.9609375,0.8848616 -1.9609375,1.9609376 0,1.076075 0.884951,1.953125 1.9609375,1.953125 1.0759867,0 1.9609375,-0.87705 1.9609375,-1.953125 0,-0.494539 -0.1915779,-0.944549 -0.4980469,-1.291016 L 7.1171875,7.8789062 c 0.2157454,0.082481 0.4481037,0.1347657 0.6914063,0.1347657 0.8385072,0 1.5539527,-0.540594 1.8320312,-1.2871094 l 0.091797,0.015625 2.798828,0.4921875 0.03906,0.00586 c 0.118571,0.9648842 0.934666,1.7246094 1.929688,1.7246094 1.075986,0 1.960938,-0.884862 1.960938,-1.9609376 0,-0.161707 -0.02488,-0.3180257 -0.0625,-0.46875 L 16.550781,6.4453125 19.068359,4.9375 19.234375,4.8378906 c 0.353469,0.3409688 0.832262,0.5527344 1.357422,0.5527344 1.075986,0 1.960937,-0.8848619 1.960937,-1.9609375 0,-1.0760375 -0.884951,-1.9609375 -1.960937,-1.9609375 z M 14.5,6.0449219 c 0.535565,0 0.958984,0.4233997 0.958984,0.9589843 0,0.5356227 -0.423419,0.9570313 -0.958984,0.9570313 -0.535565,0 -0.957031,-0.4214086 -0.957031,-0.9570313 0,-0.5355846 0.421466,-0.9589843 0.957031,-0.9589843 z M 3.484375,10.976562 c 0.5355656,0 0.9589844,0.4234 0.9589844,0.958985 0,0.535585 -0.4234188,0.958984 -0.9589844,0.958984 -0.5355654,0 -0.9570313,-0.423399 -0.9570312,-0.958984 0,-0.535585 0.4214658,-0.958985 0.9570312,-0.958985 z" id="circle2453" style="color:#000000;font-style:normal;font-variant:normal;font-weight:normal;font-stretch:normal;font-size:medium;line-height:normal;font-family:sans-serif;font-variant-ligatures:normal;font-variant-position:normal;font-variant-caps:normal;font-variant-numeric:normal;font-variant-alternates:normal;font-variant-east-asian:normal;font-feature-settings:normal;font-variation-settings:normal;text-indent:0;text-align:start;text-decoration:none;text-decoration-line:none;text-decoration-style:solid;text-decoration-color:#000000;letter-spacing:normal;word-spacing:normal;text-transform:none;writing-mode:lr-tb;direction:ltr;text-orientation:mixed;dominant-baseline:auto;baseline-shift:baseline;text-anchor:start;white-space:normal;shape-padding:0;shape-margin:0;inline-size:0;clip-rule:nonzero;display:inline;overflow:visible;visibility:visible;opacity:1;isolation:auto;mix-blend-mode:normal;color-interpolation:sRGB;color-interpolation-filters:linearRGB;solid-color:#000000;solid-opacity:1;vector-effect:none;fill:#000000;fill-opacity:1;fill-rule:nonzero;stroke:none;stroke-width:1;stroke-linecap:butt;stroke-linejoin:miter;stroke-miterlimit:4;stroke-dasharray:none;stroke-dashoffset:0;stroke-opacity:1;paint-order:fill markers stroke;color-rendering:auto;image-rendering:auto;shape-rendering:auto;text-rendering:auto;enable-background:accumulate;stop-color:#000000;stop-opacity:1" transform="matrix(0.26294626,0,0,0.26292763,0.0231146,290.67431)"/></g></svg>